<?xml version="1.0" standalone="no"?><!DOCTYPE svg PUBLIC "-//W3C//DTD SVG 1.1//EN" "http://www.w3.org/Graphics/SVG/1.1/DTD/svg11.dtd"><svg width="200" height="200" viewBox="0 0 200 200" version="1.1" xmlns="http://www.w3.org/2000/svg" xmlns:xlink="http://www.w3.org/1999/xlink"><defs><style type="text/css"><![CDATA[
@font-face { font-family: ifont; src: url("//at.alicdn.com/t/font_1442373896_4754455.eot?#iefix") format("embedded-opentype"), url("//at.alicdn.com/t/font_1442373896_4754455.woff") format("woff"), url("//at.alicdn.com/t/font_1442373896_4754455.ttf") format("truetype"), url("//at.alicdn.com/t/font_1442373896_4754455.svg#ifont") format("svg"); }

]]></style></defs><g class="transform-group"><g transform="scale(0.1953125, 0.1953125)"><path d="M833.62565 725.149565c22.373567 0 40.467667-18.191314 40.467667-40.565904 0-22.37766-18.0941-40.565904-40.467667-40.565904L375.827109 644.017756 254.141676 147.851373c-4.441149-18.068518-20.647249-31.877011-39.275515-31.877011L105.538173 115.974361c-22.334681 0-40.448224 18.226107-40.448224 40.564881 0 22.339798 18.113543 40.565904 40.448224 40.565904l77.607542 0L304.830125 693.231621c4.442172 18.090007 20.651342 31.917944 39.275515 31.917944L833.62565 725.149565 833.62565 725.149565zM833.62565 725.149565M824.262398 562.885947c17.416671 0 32.92897-19.22997 38.365796-35.817764l94.229105-291.286156c4.087085-12.33698 1.984191-21.033036-5.594415-31.587416-7.575536-10.531867-19.840884-7.090489-32.772404-7.090489L267.338233 197.104123c-22.338774 0-40.451294 18.231223-40.451294 40.566928 0 22.337751 18.113543 40.565904 40.451294 40.565904l595.051531 0-67.291592 202.140837L307.785433 480.377792c-22.338774 0-40.447201 18.914792-40.447201 41.254589 0 22.338774 18.108426 41.253566 40.447201 41.253566L824.262398 562.885947 824.262398 562.885947zM824.262398 562.885947M407.647839 752.85865 407.647839 752.85865c42.813085 0 77.547167 34.755572 77.547167 77.646428 0 42.807968-34.734082 77.521584-77.547167 77.521584-42.87039 0-77.587076-34.713616-77.587076-77.521584C330.059739 787.614222 364.777449 752.85865 407.647839 752.85865L407.647839 752.85865zM407.647839 752.85865M762.208087 752.85865 762.208087 752.85865c42.812061 0 77.567633 34.755572 77.567633 77.646428 0 42.807968-34.755572 77.521584-77.567633 77.521584-42.808992 0-77.561493-34.713616-77.561493-77.521584C684.646594 787.614222 719.399095 752.85865 762.208087 752.85865L762.208087 752.85865zM762.208087 752.85865" fill="#e71d36"></path></g></g></svg>