<?xml version="1.0" standalone="no"?><!DOCTYPE svg PUBLIC "-//W3C//DTD SVG 1.1//EN" "http://www.w3.org/Graphics/SVG/1.1/DTD/svg11.dtd"><svg width="200" height="200" viewBox="0 0 200 200" version="1.1" xmlns="http://www.w3.org/2000/svg" xmlns:xlink="http://www.w3.org/1999/xlink"><defs><style type="text/css"><![CDATA[
@font-face { font-family: ifont; src: url("//at.alicdn.com/t/font_1442373896_4754455.eot?#iefix") format("embedded-opentype"), url("//at.alicdn.com/t/font_1442373896_4754455.woff") format("woff"), url("//at.alicdn.com/t/font_1442373896_4754455.ttf") format("truetype"), url("//at.alicdn.com/t/font_1442373896_4754455.svg#ifont") format("svg"); }

]]></style></defs><g class="transform-group"><g transform="scale(0.1953125, 0.1953125)"><path d="M933.096393 0 933.096393 0 90.325967 0M518.744363 620.023272l216.449727-216.452797-188.264804-189.270714L330.474442 430.757674l-81.546248 81.540108-73.494874 73.494874c-22.147416 22.152533-40.60786 40.778752-55.370075 55.877635-14.765285 15.105023-24.166399 24.664749-28.192086 28.690436-9.393951 9.403161-16.610306 17.959024-21.642926 25.673729-5.034666 7.720845-9.570983 16.276708-13.5936 25.673729-3.358491 6.04467-7.717775 17.117866-13.090133 33.220612-5.371334 16.108886-10.904351 33.725102-16.610306 52.855812-5.704932 19.130709-11.076266 37.589107-16.110933 55.373145-5.03262 17.785062-8.223289 31.375591-9.562796 40.773635-2.686179 17.454534-1.006933 29.868261 5.034666 37.252439 6.0416 7.384178 18.121729 10.070356 36.245506 8.05649 8.721639-1.345648 21.978571-4.367471 39.766702-9.060353 17.785062-4.705162 36.576033-10.244318 56.377008-16.613376 19.797905-6.381337 38.759769-12.924357 56.881498-19.635199 18.124799-6.710842 31.881105-12.413727 41.278125-17.11275 9.400091-4.025687 18.457374-9.397021 27.185152-16.107863 8.723685-6.716982 16.441461-13.087063 23.153326-19.130709 2.685155-2.012843 11.076266-10.070356 25.169239-24.160259 14.096043-14.096043 31.883151-32.048927 53.360302-53.865815 21.47715-21.810748 45.64048-45.802162 72.485895-71.980381L518.744363 620.023272zM825.800691 313.966715c4.705162-4.692882 10.238179-10.064216 16.619516-16.108886 6.374174-6.03853 13.585413-13.08604 21.641903-21.137413 7.378038-8.057513 12.749372-16.45067 16.107863-25.172309 3.353374-8.727779 5.03569-17.448394 5.03569-26.178219 0-8.721639-0.841158-17.111726-2.517333-25.166169-1.676176-8.057513-3.856841-15.101953-6.54302-21.140483-9.397021-20.136619-22.650883-39.433104-39.768749-57.890478-17.118889-18.457374-32.722262-31.378661-46.811142-38.759769-6.716982-3.358491-14.600533-6.375198-23.660886-9.061376-9.064446-2.685155-18.457374-4.199649-28.189016-4.533246-9.736758-0.333598-19.632129 1.00898-29.699416 4.028757-10.070356 3.024893-19.800975 8.225335-29.197996 15.606443-7.384178 6.03853-16.610306 14.260795-27.683503 24.667819-11.076266 10.400884-20.642133 19.292392-28.693506 26.674523l188.260711 188.266851C815.40083 324.037071 820.435497 319.339072 825.800691 313.966715zM497.378753 830.016961 401.481659 948.97119 1023.921981 948.97119 1023.921981 830.016961Z" fill="#757575"></path></g></g></svg>