<?xml version="1.0" standalone="no"?><!DOCTYPE svg PUBLIC "-//W3C//DTD SVG 1.1//EN" "http://www.w3.org/Graphics/SVG/1.1/DTD/svg11.dtd"><svg width="18" height="18" viewBox="0 0 15 15" version="1.1" xmlns="http://www.w3.org/2000/svg" xmlns:xlink="http://www.w3.org/1999/xlink"><defs><style type="text/css"><![CDATA[
@font-face { font-family: ifont; src: url("//at.alicdn.com/t/font_1442373896_4754455.eot?#iefix") format("embedded-opentype"), url("//at.alicdn.com/t/font_1442373896_4754455.woff") format("woff"), url("//at.alicdn.com/t/font_1442373896_4754455.ttf") format("truetype"), url("//at.alicdn.com/t/font_1442373896_4754455.svg#ifont") format("svg"); }

]]></style></defs><g class="transform-group"><g transform="scale(0.0146484375, 0.0146484375)"><path d="M206.401372 878.330316c-15.116279 0-27.414373-12.310374-27.414373-27.443026l0-67.89739c0-67.796082 20.374026-133.061528 58.917878-188.740642 37.632085-54.359049 89.86675-96.012727 151.058414-120.454396l10.538007-4.208858-8.92016-7.014764c-48.123021-37.84084-75.723635-94.354971-75.723635-155.051355 0-108.74982 88.462774-197.22385 197.199291-197.22385 108.74982 0 197.224874 88.474031 197.224874 197.22385 0 60.721967-27.599591 117.237121-75.721589 155.050332l-8.927323 7.014764 10.54517 4.209882c61.200874 24.440645 113.439632 66.093301 151.069671 120.454396 38.538735 55.67502 58.907645 120.94149 58.904575 188.739619l0 67.898413c0 15.132652-12.31242 27.443026-27.446096 27.443026L206.401372 878.330316zM512.110005 504.725316c-153.447834 0-278.287097 124.82903-278.287097 278.265608l0 40.513716 556.499493 0 0-40.513716C790.322401 629.554346 665.515884 504.725316 512.110005 504.725316zM512.05577 165.118642c-78.516238 0-142.392034 63.880913-142.392034 142.401244 0 78.511121 63.87682 142.385894 142.392034 142.385894 78.512145 0 142.385894-63.874773 142.385894-142.385894C654.440641 228.998531 590.566892 165.118642 512.05577 165.118642zM70.529845 776.444834c-15.098883 0-27.384697-12.300141-27.384697-27.41642l0-52.528354c0-99.558483 54.599526-189.701526 142.493342-235.250932l7.546883-3.911076-5.710049-6.296403c-27.353998-30.173207-42.420135-69.073168-42.420135-109.532649 0-75.755358 51.368948-141.043317 124.920104-158.768003 2.039449-0.477884 4.16588-0.724501 6.284123-0.724501 12.783141 0 23.799032 8.622378 26.789133 20.968567 3.538593 14.694677-5.542226 29.550013-20.243043 33.106002-48.832172 11.730159-82.944084 55.080479-82.944084 105.417935 0 42.72508 25.26543 81.601506 64.366983 99.042737 3.365654 1.460258 6.155187 3.40147 8.585539 5.959735l0.157589 0.163729 0.166799 0.153496c0.26606 0.243547 0.520863 0.455371 0.769526 0.661056 0.014326 0.011256 0.027629 0.021489 0.041956 0.032746 1.26276 1.494027 2.39556 3.358491 3.737114 6.139837l0.292666 0.574075c0.562818 1.089821 1.052982 2.036379 1.388627 2.953262 0.24457 0.774643 0.553609 1.399883 0.802272 1.859347-0.00307 0.12382-0.00921 0.255827-0.014326 0.369414-0.028653 0.708128-0.065492 1.590218 0.037862 2.626827l0.031722 0.260943c0.339738 2.422166 0.423649 4.332678 0.267083 6.160303-0.099261 0.604774-0.265036 1.252527-0.453325 1.9934-0.099261 0.38681-0.197498 0.774643-0.291642 1.168616-0.234337 1.041726-0.36532 1.940189-0.481977 2.732228-0.145309 0.986467-0.282433 1.917676-0.512676 2.423189l-0.040932 0.093121c-3.728928 8.524141-11.7056 14.423501-21.339004 15.783475l-0.344854 0.049119-0.338714 0.084934c-93.448322 23.526833-158.714791 107.291608-158.714791 203.702402l0 52.528354C97.973894 764.144694 85.662497 776.444834 70.529845 776.444834zM953.461969 776.438695c-15.134699 0-27.447119-12.299117-27.447119-27.415396l0-52.532447c0-96.40977-65.264423-180.173522-158.714791-203.701378l-0.338714-0.084934-0.345877-0.049119c-9.629311-1.355881-17.605983-7.254218-21.336958-15.776312l-0.041956-0.094144c-0.231267-0.50449-0.366344-1.436722-0.511653-2.423189-0.116657-0.795109-0.248663-1.695618-0.463558-2.65241-0.098237-0.414439-0.181125-0.74906-0.265036-1.081635-0.200568-0.801249-0.373507-1.496074-0.457418-2.12643-0.186242-1.815345-0.11461-3.735068 0.228197-6.211469l0.024559-0.209778c0.11154-1.059122 0.072655-1.9934 0.045025-2.675946-0.004093-0.102331-0.008186-0.218988-0.01228-0.330528 0.275269-0.49221 0.620124-1.175779 0.87902-2.022053 0.176009-0.555655 0.547469-1.287319 0.978281-2.13564 0.196475-0.38681 0.394996-0.778736 0.588401-1.177825 1.075495-2.205225 2.300392-4.505617 3.931542-6.353708 0.197498-0.171915 0.517793-0.454348 0.86981-0.828878 2.480494-2.570545 5.330402-4.54041 8.709359-6.019087 39.116903-17.489326 64.361867-56.353472 64.361867-99.033527 0-49.007157-32.992415-92.085278-80.232322-104.757902-7.074116-1.904373-12.985756-6.444782-16.642029-12.784164-3.65525-6.342452-4.617158-13.735839-2.706645-20.817118 3.212158-11.9471 14.098089-20.288069 26.471908-20.288069 2.39249 0 4.790096 0.318248 7.126304 0.944512 71.133084 19.089777 120.813576 83.942831 120.813576 157.708881 0 40.426735-15.066137 79.326696-42.423205 109.534695l-5.701862 6.296403 7.541767 3.908006c87.880513 45.542242 142.468782 135.681192 142.462642 235.241722l0 52.532447C980.852806 764.140601 968.564945 776.438695 953.461969 776.438695z" fill="#c9c9c9"></path></g></g></svg>