<svg xmlns="http://www.w3.org/2000/svg" viewBox="0 0 33.5 33.49"><defs><style>.cls-1{fill:#ff690e;fill-rule:evenodd;}</style></defs><title>团购</title><g id="图层_2" data-name="图层 2"><g id="图层_1-2" data-name="图层 1"><g id="形状_35" data-name="形状 35"><g id="形状_35-2" data-name="形状 35"><path class="cls-1" d="M31.92,9.65v0h0a1.12,1.12,0,0,0-2,1A14.5,14.5,0,0,1,23,29.83l-.17.08A14.5,14.5,0,0,1,3.66,23a1.06,1.06,0,0,0-.08-.17A14.5,14.5,0,0,1,25,4.8a1.12,1.12,0,1,0,1.27-1.85A16.74,16.74,0,0,0,1.58,23.84h0a16.74,16.74,0,0,0,22.26,8.06h0A16.74,16.74,0,0,0,31.92,9.65ZM8.45,25.08H22.16q2.91.07,2.84-2.76V8.45H8.45ZM11,10.14H22.47v2.61h-2.3V10.91H17.8v1.84h-6v1.53h3.07a10.24,10.24,0,0,1-3.07,6.59v1.61a10.13,10.13,0,0,0,5.36-8.2h.61V20.1a.88.88,0,0,1-1,1H16v1.46h1.69q2.53.08,2.45-2.53V14.28h2.3V22.4a1,1,0,0,1-1.15,1.23H11Z"/></g></g></g></g></svg>