<?xml version="1.0" standalone="no"?><!DOCTYPE svg PUBLIC "-//W3C//DTD SVG 1.1//EN" "http://www.w3.org/Graphics/SVG/1.1/DTD/svg11.dtd"><svg width="200" height="200" viewBox="0 0 200 200" version="1.1" xmlns="http://www.w3.org/2000/svg" xmlns:xlink="http://www.w3.org/1999/xlink"><defs><style type="text/css"><![CDATA[
@font-face { font-family: ifont; src: url("//at.alicdn.com/t/font_1442373896_4754455.eot?#iefix") format("embedded-opentype"), url("//at.alicdn.com/t/font_1442373896_4754455.woff") format("woff"), url("//at.alicdn.com/t/font_1442373896_4754455.ttf") format("truetype"), url("//at.alicdn.com/t/font_1442373896_4754455.svg#ifont") format("svg"); }

]]></style></defs><g class="transform-group"><g transform="scale(0.1953125, 0.1953125)"><path d="M 798.843 537.321 c 0 -82.366 -44.672 -154.213 -111.054 -192.892 c -3.013 -1.592 -10.116 -4.673 -15.069 -4.673 c -14.74 0 -26.69 11.955 -26.69 26.696 c 0 9.892 5.27 18.718 13.265 23.329 c 51.323 29.164 85.969 84.288 85.969 147.539 c 0 64.365 -35.847 120.345 -88.666 149.092 c -7.687 4.685 -12.784 13.207 -12.784 22.868 c 0 14.747 11.956 26.697 26.695 26.697 c 6.263 0.055 13.683 -3.639 13.683 -3.639 c 68.382 -38.138 114.652 -111.16 114.652 -195.017 Z M 768.033 208.692 c -4.96 -2.969 -9.907 -5.393 -15.889 -5.393 c -14.672 0 -26.561 11.894 -26.561 26.562 c 0 10.572 6.285 19.074 15.163 23.898 c 97.506 56.895 163.09 162.524 163.09 283.562 c 0 120.954 -65.501 226.52 -162.9 283.436 c -8.552 4.642 -15.911 13.432 -15.911 24.301 c 0 14.674 11.893 26.56 26.562 26.56 c 5.894 0 10.591 -2.262 15.687 -5.219 c 113.155 -66.037 189.258 -188.623 189.258 -329.08 c 0 -140.146 -75.771 -262.491 -188.5 -328.629 Z M 133.55 352.597 l 131.907 0 c 17.593 0 44.622 -7.227 162.512 -93.573 c 21.014 -15.393 41.536 -30.857 59.295 -44.428 c 0 0 0.453 346.702 0.453 347.71 c 0 14.808 12.003 26.811 26.811 26.811 c 14.808 0 26.812 -12.002 26.812 -26.811 c 0 -2.871 -1.299 -394.673 -1.299 -394.673 c 0.01 -12.406 -7.099 -23.719 -18.278 -29.113 c -11.175 -5.387 -24.45 -3.91 -34.173 3.822 c -0.46 0.374 -47.818 38.01 -100.123 76.532 c -90.977 67.016 -117.46 78.177 -122.836 79.947 l -113.963 0 c -0.658 0 -1.28 0.089 -1.932 0.099 l -58.193 0 c -14.668 0 -26.562 11.895 -26.562 26.562 l 0 424.052 c 0 14.668 11.889 26.557 26.562 26.557 l 195.181 0.011 c 5.292 1.922 30.288 13.488 111.009 79.317 c 46.962 38.288 89.104 75.668 89.522 76.036 c 6.036 5.359 13.703 8.158 21.476 8.158 c 4.472 0 8.991 -0.936 13.241 -2.842 c 11.605 -5.221 19.069 -16.757 19.069 -29.486 c 0 0 0.057 -148.539 0.057 -148.919 s -0.041 -0.747 -0.057 -1.124 l 0 -0.803 l -0.04 0 c -0.992 -13.801 -12.473 -24.699 -26.528 -24.699 c -14.705 0 -26.625 11.92 -26.625 26.625 c 0 1.551 0.414 97.44 0.414 97.44 c -14.317 -12.095 -30.273 -25.376 -46.613 -38.602 c -107.766 -87.289 -134.428 -94.592 -152.5 -94.592 c -0.356 0 -0.686 0.094 -1.043 0.106 c -0.35 -0.012 -0.685 -0.106 -1.041 -0.106 l -146.389 0 c -18.612 0 -22.918 -5.259 -22.918 -23.948 l 0 -325.445 c 0 -12.662 1.498 -20.623 16.79 -20.623 Z" fill="#109b5a"></path></g></g></svg>