<?xml version="1.0" standalone="no"?><!DOCTYPE svg PUBLIC "-//W3C//DTD SVG 1.1//EN" "http://www.w3.org/Graphics/SVG/1.1/DTD/svg11.dtd"><svg width="17" height="17" viewBox="0 0 15 15" version="1.1" xmlns="http://www.w3.org/2000/svg" xmlns:xlink="http://www.w3.org/1999/xlink"><defs><style type="text/css"><![CDATA[
@font-face { font-family: ifont; src: url("//at.alicdn.com/t/font_1442373896_4754455.eot?#iefix") format("embedded-opentype"), url("//at.alicdn.com/t/font_1442373896_4754455.woff") format("woff"), url("//at.alicdn.com/t/font_1442373896_4754455.ttf") format("truetype"), url("//at.alicdn.com/t/font_1442373896_4754455.svg#ifont") format("svg"); }

]]></style></defs><g class="transform-group"><g transform="scale(0.0146484375, 0.0146484375)"><path d="M245.76 173.54752 245.76 286.72l757.76 0L1003.52 173.54752 245.76 173.54752zM245.76 588.53376l757.76 0L1003.52 475.3408 245.76 475.3408 245.76 588.53376zM245.76 890.34752l757.76 0 0-113.17248L245.76 777.17504 245.76 890.34752zM20.48 286.72l102.4 0L122.88 173.54752 20.48 173.54752 20.48 286.72zM20.48 593.92l102.4 0 0-113.17248L20.48 480.74752 20.48 593.92zM20.48 880.64l102.4 0 0-113.17248L20.48 767.46752 20.48 880.64z" fill="#ffffff"></path></g></g></svg>