<?xml version="1.0" standalone="no"?><!DOCTYPE svg PUBLIC "-//W3C//DTD SVG 1.1//EN" "http://www.w3.org/Graphics/SVG/1.1/DTD/svg11.dtd"><svg width="200" height="200" viewBox="0 0 200 200" version="1.1" xmlns="http://www.w3.org/2000/svg" xmlns:xlink="http://www.w3.org/1999/xlink"><defs><style type="text/css"><![CDATA[
@font-face { font-family: ifont; src: url("//at.alicdn.com/t/font_1442373896_4754455.eot?#iefix") format("embedded-opentype"), url("//at.alicdn.com/t/font_1442373896_4754455.woff") format("woff"), url("//at.alicdn.com/t/font_1442373896_4754455.ttf") format("truetype"), url("//at.alicdn.com/t/font_1442373896_4754455.svg#ifont") format("svg"); }

]]></style></defs><g class="transform-group"><g transform="scale(0.1953125, 0.1953125)"><path d="M192 447.89248c0-35.33696 28.6528-63.9808 64.00256-63.9808 35.34336 0 63.99616 28.64384 63.99616 63.9808 0 35.34208-28.6528 63.98592-63.99616 63.98592C220.6528 511.8784 192 483.23456 192 447.89248L192 447.89248 192 447.89248zM447.99744 447.89248c0-35.33696 28.6592-63.9808 64.00256-63.9808 35.34592 0 64.00256 28.64384 64.00256 63.9808 0 35.34208-28.65792 63.98592-64.00256 63.98592C476.65664 511.8784 447.99744 483.23456 447.99744 447.89248L447.99744 447.89248 447.99744 447.89248zM897.74336 895.79008l-65.73696 0 0-63.9872 72.66432 0c30.56 0 55.32672-28.64384 55.32672-63.9872l0-635.52c0-35.33696-24.77184-68.30208-55.32672-68.30208L119.33568 63.9936c-30.56128 0-55.32672 32.96512-55.32672 68.30208l0 635.52c0 35.34976 24.77184 63.9872 55.32672 63.9872L614.848 831.80288c0.7488 0.0064 1.46688-0.06656 2.20416 0l1.62304 0 0 0.41344c7.25504 0.97408 14.28992 4.07552 19.55072 9.95968l115.05024 128.8832c11.70816 13.08928 10.57792 33.18784-2.53312 44.864-13.11616 11.69536-33.23648 10.55232-44.9472-2.54336l-104.992-117.58976L127.07072 895.79008C57.33248 895.79008 0 833.72416 0 757.16224l0-618.5216C0 62.07872 57.33248 0 127.07072 0l770.67264 0C967.4752 0 1024 62.07872 1024 138.64064l0 618.5152c0 76.56192-56.5248 138.64064-126.25664 138.64064L897.74336 895.79008 897.74336 895.79008zM704 447.89248c0-35.33696 28.6528-63.9808 64.00256-63.9808 35.34592 0 63.99616 28.64384 63.99616 63.9808 0 35.34208-28.65152 63.98592-63.99616 63.98592C732.6528 511.8784 704 483.23456 704 447.89248L704 447.89248 704 447.89248zM704 447.89248" fill="#757575"></path></g></g></svg>