<?xml version="1.0" standalone="no"?><!DOCTYPE svg PUBLIC "-//W3C//DTD SVG 1.1//EN" "http://www.w3.org/Graphics/SVG/1.1/DTD/svg11.dtd"><svg width="200" height="200" viewBox="0 0 200 200" version="1.1" xmlns="http://www.w3.org/2000/svg" xmlns:xlink="http://www.w3.org/1999/xlink"><defs><style type="text/css"><![CDATA[
@font-face { font-family: ifont; src: url("//at.alicdn.com/t/font_1442373896_4754455.eot?#iefix") format("embedded-opentype"), url("//at.alicdn.com/t/font_1442373896_4754455.woff") format("woff"), url("//at.alicdn.com/t/font_1442373896_4754455.ttf") format("truetype"), url("//at.alicdn.com/t/font_1442373896_4754455.svg#ifont") format("svg"); }

]]></style></defs><g class="transform-group"><g transform="scale(0.1953125, 0.1953125)"><path d="M639.471824 575.573921c-16.409387 0-32.818774-6.262634-45.346602-18.787902L339.303352 301.95617c-25.054632-25.038256-25.054632-65.654302 0-90.690512 25.050539-25.051559 65.640619-25.051559 90.691158 0l254.826987 254.829849c25.053609 25.036209 25.053609 65.652256 0 90.690512C672.294692 569.311287 655.884282 575.573921 639.471824 575.573921zM384.647907 830.389444c-16.409387 0-32.817751-6.263657-45.345579-18.789948-25.054632-25.036209-25.054632-65.652256 0-90.688465l254.822894-254.815523c25.053609-25.051559 65.640619-25.051559 90.695251 0 25.053609 25.036209 25.053609 65.652256 0 90.690512l-254.826987 254.813476C417.469752 824.125787 401.058318 830.389444 384.647907 830.389444z" fill="#757575"></path></g></g></svg>