<?xml version="1.0" standalone="no"?><!DOCTYPE svg PUBLIC "-//W3C//DTD SVG 1.1//EN" "http://www.w3.org/Graphics/SVG/1.1/DTD/svg11.dtd"><svg width="243.75" height="200" viewBox="0 0 243.75 200" version="1.1" xmlns="http://www.w3.org/2000/svg" xmlns:xlink="http://www.w3.org/1999/xlink"><defs><style type="text/css"><![CDATA[
@font-face { font-family: ifont; src: url("//at.alicdn.com/t/font_1442373896_4754455.eot?#iefix") format("embedded-opentype"), url("//at.alicdn.com/t/font_1442373896_4754455.woff") format("woff"), url("//at.alicdn.com/t/font_1442373896_4754455.ttf") format("truetype"), url("//at.alicdn.com/t/font_1442373896_4754455.svg#ifont") format("svg"); }

]]></style></defs><g class="transform-group"><g transform="scale(0.1953125, 0.1953125)"><path d="M621.714286 65.828571c14.628571 0 21.942857 7.314286 29.257143 14.628571L1170.285714 906.971429c14.628571 21.942857 0 51.2-29.257143 51.2L102.4 958.171429c-29.257143 0-43.885714-29.257143-29.257143-51.2L592.457143 80.457143C599.771429 65.828571 607.085714 65.828571 621.714286 65.828571M621.714286 0C585.142857 0 555.885714 14.628571 533.942857 43.885714L14.628571 877.714286c-21.942857 29.257143-21.942857 65.828571 0 95.085714C29.257143 1002.057143 65.828571 1024 102.4 1024l1045.942857 0c36.571429 0 65.828571-21.942857 87.771429-51.2 14.628571-29.257143 14.628571-65.828571 0-95.085714L709.485714 43.885714C687.542857 14.628571 658.285714 0 621.714286 0L621.714286 0zM621.714286 841.142857c-29.257143 0-51.2-21.942857-51.2-51.2 0-29.257143 21.942857-51.2 51.2-51.2 29.257143 0 51.2 21.942857 51.2 51.2C672.914286 819.2 650.971429 841.142857 621.714286 841.142857zM629.028571 687.542857 607.085714 687.542857 577.828571 314.514286c0-29.257143 14.628571-65.828571 43.885714-65.828571 29.257143 0 51.2 36.571429 43.885714 65.828571L629.028571 687.542857z" fill="#9e9e9e"></path></g></g></svg>