<?xml version="1.0" standalone="no"?><!DOCTYPE svg PUBLIC "-//W3C//DTD SVG 1.1//EN" "http://www.w3.org/Graphics/SVG/1.1/DTD/svg11.dtd"><svg width="15" height="15" viewBox="0 0 15 15" version="1.1" xmlns="http://www.w3.org/2000/svg" xmlns:xlink="http://www.w3.org/1999/xlink"><defs><style type="text/css"><![CDATA[
@font-face { font-family: ifont; src: url("//at.alicdn.com/t/font_1442373896_4754455.eot?#iefix") format("embedded-opentype"), url("//at.alicdn.com/t/font_1442373896_4754455.woff") format("woff"), url("//at.alicdn.com/t/font_1442373896_4754455.ttf") format("truetype"), url("//at.alicdn.com/t/font_1442373896_4754455.svg#ifont") format("svg"); }

]]></style></defs><g class="transform-group"><g transform="scale(0.0146484375, 0.0146484375)"><path d="M23.965957 0.726241 23.965957 1023.273759 23.965957 0.726241ZM47.205674 0.726241 47.205674 1023.273759 47.205674 0.726241ZM70.44539 0.726241 70.44539 1023.273759 70.44539 0.726241ZM93.685106 0.726241 93.685106 1023.273759 93.685106 0.726241ZM116.924823 0.726241 116.924823 1023.273759 116.924823 0.726241ZM140.164539 0.726241 140.164539 1023.273759 140.164539 0.726241ZM163.404255 0.726241 163.404255 1023.273759 163.404255 0.726241ZM186.643972 0.726241 186.643972 1023.273759 186.643972 0.726241ZM209.883688 0.726241 209.883688 1023.273759 209.883688 0.726241ZM233.123404 0.726241 233.123404 1023.273759 233.123404 0.726241ZM256.363121 0.726241 256.363121 1023.273759 256.363121 0.726241ZM279.602837 0.726241 279.602837 1023.273759 279.602837 0.726241ZM302.842553 0.726241 302.842553 1023.273759 302.842553 0.726241ZM326.08227 0.726241 326.08227 1023.273759 326.08227 0.726241ZM349.321986 0.726241 349.321986 1023.273759 349.321986 0.726241ZM372.561702 0.726241 372.561702 1023.273759 372.561702 0.726241ZM395.801418 0.726241 395.801418 1023.273759 395.801418 0.726241ZM419.041135 0.726241 419.041135 1023.273759 419.041135 0.726241ZM442.280851 0.726241 442.280851 1023.273759 442.280851 0.726241ZM465.520567 0.726241 465.520567 1023.273759 465.520567 0.726241ZM488.760284 0.726241 488.760284 1023.273759 488.760284 0.726241ZM512 0.726241 512 1023.273759 512 0.726241ZM535.239716 0.726241 535.239716 1023.273759 535.239716 0.726241ZM558.479433 0.726241 558.479433 1023.273759 558.479433 0.726241ZM581.719149 0.726241 581.719149 1023.273759 581.719149 0.726241ZM604.958865 0.726241 604.958865 1023.273759 604.958865 0.726241ZM628.198582 0.726241 628.198582 1023.273759 628.198582 0.726241ZM651.438298 0.726241 651.438298 1023.273759 651.438298 0.726241ZM674.678014 0.726241 674.678014 1023.273759 674.678014 0.726241ZM697.91773 0.726241 697.91773 1023.273759 697.91773 0.726241ZM721.157447 0.726241 721.157447 1023.273759 721.157447 0.726241ZM744.397163 0.726241 744.397163 1023.273759 744.397163 0.726241ZM767.636879 0.726241 767.636879 1023.273759 767.636879 0.726241ZM790.876596 0.726241 790.876596 1023.273759 790.876596 0.726241ZM814.116312 0.726241 814.116312 1023.273759 814.116312 0.726241ZM837.356028 0.726241 837.356028 1023.273759 837.356028 0.726241ZM860.595745 0.726241 860.595745 1023.273759 860.595745 0.726241ZM883.835461 0.726241 883.835461 1023.273759 883.835461 0.726241ZM907.075177 0.726241 907.075177 1023.273759 907.075177 0.726241ZM930.314894 0.726241 930.314894 1023.273759 930.314894 0.726241ZM953.55461 0.726241 953.55461 1023.273759 953.55461 0.726241ZM976.794326 0.726241 976.794326 1023.273759 976.794326 0.726241ZM1000.034043 0.726241 1000.034043 1023.273759 1000.034043 0.726241ZM0.726241 23.965957 1023.273759 23.965957 0.726241 23.965957ZM0.726241 47.205674 1023.273759 47.205674 0.726241 47.205674ZM0.726241 70.44539 1023.273759 70.44539 0.726241 70.44539ZM0.726241 93.685106 1023.273759 93.685106 0.726241 93.685106ZM0.726241 116.924823 1023.273759 116.924823 0.726241 116.924823ZM0.726241 140.164539 1023.273759 140.164539 0.726241 140.164539ZM0.726241 163.404255 1023.273759 163.404255 0.726241 163.404255ZM0.726241 186.643972 1023.273759 186.643972 0.726241 186.643972ZM0.726241 209.883688 1023.273759 209.883688 0.726241 209.883688ZM0.726241 233.123404 1023.273759 233.123404 0.726241 233.123404ZM0.726241 256.363121 1023.273759 256.363121 0.726241 256.363121ZM0.726241 279.602837 1023.273759 279.602837 0.726241 279.602837ZM0.726241 302.842553 1023.273759 302.842553 0.726241 302.842553ZM0.726241 326.08227 1023.273759 326.08227 0.726241 326.08227ZM0.726241 349.321986 1023.273759 349.321986 0.726241 349.321986ZM0.726241 372.561702 1023.273759 372.561702 0.726241 372.561702ZM0.726241 395.801418 1023.273759 395.801418 0.726241 395.801418ZM0.726241 419.041135 1023.273759 419.041135 0.726241 419.041135ZM0.726241 442.280851 1023.273759 442.280851 0.726241 442.280851ZM0.726241 465.520567 1023.273759 465.520567 0.726241 465.520567ZM0.726241 488.760284 1023.273759 488.760284 0.726241 488.760284ZM0.726241 512 1023.273759 512 0.726241 512ZM0.726241 535.239716 1023.273759 535.239716 0.726241 535.239716ZM0.726241 558.479433 1023.273759 558.479433 0.726241 558.479433ZM0.726241 581.719149 1023.273759 581.719149 0.726241 581.719149ZM0.726241 604.958865 1023.273759 604.958865 0.726241 604.958865ZM0.726241 628.198582 1023.273759 628.198582 0.726241 628.198582ZM0.726241 651.438298 1023.273759 651.438298 0.726241 651.438298ZM0.726241 674.678014 1023.273759 674.678014 0.726241 674.678014ZM0.726241 697.91773 1023.273759 697.91773 0.726241 697.91773ZM0.726241 721.157447 1023.273759 721.157447 0.726241 721.157447ZM0.726241 744.397163 1023.273759 744.397163 0.726241 744.397163ZM0.726241 767.636879 1023.273759 767.636879 0.726241 767.636879ZM0.726241 790.876596 1023.273759 790.876596 0.726241 790.876596ZM0.726241 814.116312 1023.273759 814.116312 0.726241 814.116312ZM0.726241 837.356028 1023.273759 837.356028 0.726241 837.356028ZM0.726241 860.595745 1023.273759 860.595745 0.726241 860.595745ZM0.726241 883.835461 1023.273759 883.835461 0.726241 883.835461ZM0.726241 907.075177 1023.273759 907.075177 0.726241 907.075177ZM0.726241 930.314894 1023.273759 930.314894 0.726241 930.314894ZM0.726241 953.55461 1023.273759 953.55461 0.726241 953.55461ZM0.726241 976.794326 1023.273759 976.794326 0.726241 976.794326ZM0.726241 1000.034043 1023.273759 1000.034043 0.726241 1000.034043ZM1023.273759 930.314894c0 92.958865-92.958865 92.958865-92.958865 92.958865l-265.955313-265.908834c-68.928999 50.104828-153.521566 79.991104-245.318445 79.991104-231.04926 0-418.314894-187.265634-418.314894-418.314894s187.265634-418.314894 418.314894-418.314894 418.314894 187.265634 418.314894 418.314894c0 91.796879-29.932755 176.389447-80.037583 245.364925l265.955313 265.908834zM419.041135 93.685106c-179.689487 0-325.356028 145.666542-325.356028 325.356028s145.666542 325.356028 325.356028 325.356028 325.356028-145.666542 325.356028-325.356028-145.666542-325.356028-325.356028-325.356028z" fill="#ffffff"></path></g></g></svg>