<?xml version="1.0" standalone="no"?><!DOCTYPE svg PUBLIC "-//W3C//DTD SVG 1.1//EN" "http://www.w3.org/Graphics/SVG/1.1/DTD/svg11.dtd"><svg width="200" height="200" viewBox="0 0 200 200" version="1.1" xmlns="http://www.w3.org/2000/svg" xmlns:xlink="http://www.w3.org/1999/xlink"><defs><style type="text/css"><![CDATA[
@font-face { font-family: ifont; src: url("//at.alicdn.com/t/font_1442373896_4754455.eot?#iefix") format("embedded-opentype"), url("//at.alicdn.com/t/font_1442373896_4754455.woff") format("woff"), url("//at.alicdn.com/t/font_1442373896_4754455.ttf") format("truetype"), url("//at.alicdn.com/t/font_1442373896_4754455.svg#ifont") format("svg"); }

]]></style></defs><g class="transform-group"><g transform="scale(0.1953125, 0.1953125)"><path d="M864.909655 527.159258c-18.73469 0-33.933857 15.20019-33.933857 33.933857l0 296.659537c0 6.229888-5.081739 11.311627-11.311627 11.311627L144.757918 869.064278c-6.229888 0-11.311627-5.081739-11.311627-11.311627L133.446291 186.601932c0-6.241145 5.081739-11.311627 11.311627-11.311627l409.353179 0c18.73469 0 33.933857-15.188934 33.933857-33.933857s-15.20019-33.933857-33.933857-33.933857l-409.353179 0c-43.655266 0-79.17934 35.525098-79.17934 79.17934l0 671.15072c0 43.655266 35.525098 79.17934 79.17934 79.17934l674.906254 0c43.655266 0 79.17934-35.525098 79.17934-79.17934L898.843512 561.093115C898.843512 542.359448 883.644345 527.159258 864.909655 527.159258zM957.322391 264.257569 785.53077 94.586239c-13.3214-13.156648-34.795481-13.046131-47.984874 0.297782-13.166881 13.332656-13.034874 34.817993 0.309038 47.996131l114.101711 112.695688c-398.379243 15.948227-486.772432 385.191896-487.687268 389.159254-4.1536 18.270109 7.312546 36.453237 25.583678 40.605813 2.518357 0.574075 5.059226 0.839111 7.53358 0.839111 15.509229 0 29.493731-10.671037 33.072233-26.422789 3.167133-13.951757 76.960813-321.934177 422.731884-336.390423L730.784912 451.613678c-12.945847 13.553691-12.438287 35.039028 1.104147 47.973618 6.583952 6.27389 15.023158 9.388834 23.439852 9.388834 8.947789 0 17.873066-3.523243 24.545022-10.505261l178.154539-186.637748C970.820823 298.446229 970.511785 277.269931 957.322391 264.257569z" fill="#757575"></path></g></g></svg>