<?xml version="1.0" encoding="utf-8"?>
<!-- Generator: Adobe Illustrator 15.0.0, SVG Export Plug-In  -->
<!DOCTYPE svg PUBLIC "-//W3C//DTD SVG 1.1//EN" "http://www.w3.org/Graphics/SVG/1.1/DTD/svg11.dtd" [
	<!ENTITY ns_flows "http://ns.adobe.com/Flows/1.0/">
]>
<svg version="1.1"
	 xmlns="http://www.w3.org/2000/svg" xmlns:xlink="http://www.w3.org/1999/xlink" xmlns:a="http://ns.adobe.com/AdobeSVGViewerExtensions/3.0/"
	 x="0px" y="0px" width="216px" height="106px" viewBox="-0.844 -0.167 216 106" enable-background="new -0.844 -0.167 216 106"
	 xml:space="preserve">
<defs>
</defs>
<path opacity="0.4" fill="#FABB7D" d="M170.074,92.835h-130c-22.092,0-40-17.91-40-40.003l0,0c0-22.092,17.908-40,40-40h130V92.835z
	"/>
<text transform="matrix(1 0 0 1 25.375 45.3135)"><tspan x="0" y="0" fill="#FFFFFF" font-family="'PingFang-SC-Medium'" font-size="24.8177">做任务</tspan><tspan x="0" y="29.782" fill="#FFFFFF" font-family="'PingFang-SC-Medium'" font-size="24.8177">拿奖励</tspan></text>
<path opacity="0.2" fill="#FABB7D" d="M214.238,52.833c0,29.141-23.617,52.756-52.748,52.756s-52.748-23.615-52.748-52.756
	c0-29.14,23.617-52.755,52.748-52.755S214.238,23.693,214.238,52.833z"/>
<path opacity="0.5" fill="#FABB7D" d="M207.614,52.833c0,25.482-20.651,46.131-46.124,46.131s-46.124-20.648-46.124-46.131
	c0-25.48,20.651-46.13,46.124-46.13S207.614,27.353,207.614,52.833z"/>
<path fill="#FABB7D" d="M201.614,52.833c0,22.168-17.965,40.131-40.124,40.131c-22.16,0-40.125-17.963-40.125-40.131
	c0-22.167,17.965-40.13,40.125-40.13C183.649,12.703,201.614,30.667,201.614,52.833z"/>
<ellipse fill="#FFFEFC" cx="161.49" cy="52.834" rx="36.5" ry="36.505"/>
<path fill-rule="evenodd" clip-rule="evenodd" fill="#FABB7D" d="M154.856,26.241c-1.738-0.638-3.279-0.532-4.572,0.323
	c-1.564,1.039-2.48,3.022-2.577,4.442c-0.146,2.12,1.236,4.567,1.781,5.33l0.125,0.174h10.611v-3.526
	C159.918,32.13,158.118,27.446,154.856,26.241L154.856,26.241z M138.113,40.672v10.12l22.111,0.07V39.087h-20.358
	C139.438,39.243,138.113,39.796,138.113,40.672L138.113,40.672z M140.723,75.376c0.187,0.396,0.476,0.801,0.634,0.865l18.868-0.008
	V53.44h-19.502V75.376L140.723,75.376L140.723,75.376z M173.49,36.741c0.019-0.027,1.954-2.796,1.78-5.329
	c-0.098-1.423-1.014-3.407-2.579-4.446c-1.289-0.851-2.828-0.961-4.574-0.321c-3.257,1.205-5.055,5.887-5.361,6.741v3.539
	l10.59,0.02L173.49,36.741L173.49,36.741L173.49,36.741z M183.119,39.086h-20.363v11.777l22.11-0.07V40.671
	C184.867,39.852,183.637,39.271,183.119,39.086L183.119,39.086z M162.756,76.234h18.884c0.16-0.086,0.433-0.473,0.613-0.857V53.44
	h-19.497V76.234L162.756,76.234L162.756,76.234z"/>
<rect id="_x3C_切片_x3E__1_" fill="none" width="214.297" height="105.708"/>
</svg>
