<svg xmlns="http://www.w3.org/2000/svg" height="18" viewBox="0 0 33 33"><defs><style>.cls-1{fill:#757575;fill-rule:evenodd;}</style></defs><title>资源 1</title><g id="图层_2" data-name="图层 2"><g id="图层_1-2" data-name="图层 1"><g id="me"><g id="me-2" data-name="me"><path class="cls-1" d="M16.5,18.56C11,18.56,0,21.33,0,26.81V33H33V26.81C33,21.33,22,18.56,16.5,18.56ZM29.08,29.08H3.92V26.81c0-1.32,6.46-4.33,12.58-4.33s12.58,3,12.58,4.33ZM16.5,16.5A8.25,8.25,0,1,0,8.25,8.25,8.25,8.25,0,0,0,16.5,16.5Zm0-12.58a4.33,4.33,0,1,1-4.33,4.33A4.33,4.33,0,0,1,16.5,3.92Z"/></g></g></g></g></svg>