<svg xmlns="http://www.w3.org/2000/svg" height="18" viewBox="0 0 38 34"><defs><style>.cls-1{fill:#2ab4e8;fill-rule:evenodd;}</style></defs><title>资源 3</title><g id="图层_2" data-name="图层 2"><g id="图层_1-2" data-name="图层 1"><g id="购物车"><g id="购物车-2" data-name="购物车"><path class="cls-1" d="M13.49,18.7H27.64A3.87,3.87,0,0,0,31,16.95l6.8-11A1.52,1.52,0,0,0,38,5.1a1.81,1.81,0,0,0-1.9-1.7H8L6.21,0H0V3.4H3.8l6.84,12.9L8.08,20.47A3,3,0,0,0,7.6,22.1a3.63,3.63,0,0,0,3.8,3.4H34.2V22.1h-22a.45.45,0,0,1-.48-.42l.06-.2ZM11.4,27.2a3.61,3.61,0,0,0-3.78,3.4A3.61,3.61,0,0,0,11.4,34a3.63,3.63,0,0,0,3.8-3.4A3.63,3.63,0,0,0,11.4,27.2Zm19,0a3.61,3.61,0,0,0-3.78,3.4A3.61,3.61,0,0,0,30.4,34a3.63,3.63,0,0,0,3.8-3.4A3.63,3.63,0,0,0,30.4,27.2Z"/></g></g></g></g></svg>