<svg xmlns="http://www.w3.org/2000/svg" height="18" viewBox="0 0 36.05 34"><defs><style>.cls-1{fill:#757575;fill-rule:evenodd;}</style></defs><title>资源 4</title><g id="图层_2" data-name="图层 2"><g id="图层_1-2" data-name="图层 1"><g id="购物车"><g id="购物车-2" data-name="购物车"><path class="cls-1" d="M10.69,27.2a3.4,3.4,0,1,0,0,6.8,3.4,3.4,0,1,0,0-6.8ZM32,22c.14-.12.06-.17,0,0Zm-3.53,5.2A3.4,3.4,0,1,0,32,30.6,3.48,3.48,0,0,0,28.48,27.2ZM4,4s.06.56,0,0ZM34,2H7L6.83,2l-1-2a.08.08,0,0,0-.08,0H.1A.08.08,0,0,0,0,.08V3.32C0,4,0,4,0,4H4L9,16c.13,1.08-.58,1.1,0,1L7.58,20.47a3.2,3.2,0,0,0-.42,2C7.35,24.24,8,26,11,26c5.19-.05,19.81,0,21,0V22H12c-.23,0-1-.09-1-.33L11,21l2-2H26a3.68,3.68,0,0,0,3-2.05L35.84,5.1s0,0,0,0A1.37,1.37,0,0,0,36,4.41,1.86,1.86,0,0,0,34,2Zm-3.2,4.8L26,15H13L9.2,6.8,8.8,6H31.27Z"/></g></g></g></g></svg>